<svg height="512pt" viewBox="-81 0 512 512" width="512pt" xmlns="http://www.w3.org/2000/svg"><path d="m280.429688 268.191406h-211.300782c-4.488281 0-8.128906 3.636719-8.128906 8.125v32.507813c0 56.460937 41.367188 103.339843 95.367188 112.164062 5.933593.96875 10.285156 6.082031 10.285156 12.089844v54.539063h16.253906v-54.539063c0-6.007813 4.351562-11.121094 10.28125-12.089844 54.003906-8.824219 95.367188-55.703125 95.367188-112.164062v-32.507813c0-4.488281-3.636719-8.125-8.125-8.125zm-8.128907 40.632813c0 53.777343-43.746093 97.523437-97.523437 97.523437s-97.523438-43.746094-97.523438-97.523437v-24.378907h195.046875zm0 0" fill="#dad8db"/><path d="m85.382812 268.191406h178.792969v16.253906h-178.792969zm0 0" fill="#c8c5c9"/><path d="m174.777344 170.667969c40.398437 0 73.144531 32.746093 73.144531 73.140625v40.636718h-146.285156v-40.636718c0-40.394532 32.746093-73.140625 73.140625-73.140625zm0 0" fill="#dad8db"/><path d="m182.90625 171.144531c-2.671875-.296875-5.378906-.480469-8.128906-.480469-40.394532 0-73.140625 32.75-73.140625 73.144532v40.636718h16.253906v-40.636718c0-37.644532 28.449219-68.617188 65.015625-72.664063zm0 0" fill="#c8c5c9"/><path d="m255.230469 171.484375c-2.078125 0-4.160157-.792969-5.746094-2.382813-19.953125-19.949218-46.484375-30.941406-74.707031-30.941406s-54.753906 10.992188-74.707032 30.941406c-3.171874 3.175782-8.316406 3.175782-11.488281 0-3.175781-3.171874-3.175781-8.316406 0-11.492187 23.023438-23.023437 53.632813-35.703125 86.195313-35.703125s63.175781 12.683594 86.199218 35.703125c3.175782 3.175781 3.175782 8.320313 0 11.492187-1.585937 1.589844-3.667968 2.382813-5.746093 2.382813zm0 0" fill="#ffd064"/><path d="m283.960938 142.75c-2.078126 0-4.160157-.792969-5.746094-2.382812-57.03125-57.03125-149.839844-57.03125-206.871094 0-3.175781 3.175781-8.320312 3.175781-11.492188 0-3.175781-3.171876-3.175781-8.316407 0-11.488282 63.363282-63.375 166.492188-63.375 229.855469 0 3.175781 3.171875 3.175781 8.316406 0 11.488282-1.585937 1.589843-3.667969 2.382812-5.746093 2.382812zm0 0" fill="#ffe07d"/><path d="m312.699219 114.015625c-2.078125 0-4.160157-.792969-5.746094-2.378906-72.890625-72.875-191.460937-72.875-264.347656 0-3.175781 3.171875-8.316407 3.171875-11.492188 0-3.175781-3.175781-3.175781-8.320313 0-11.492188 79.222657-79.214843 208.109375-79.214843 287.332031 0 3.175782 3.171875 3.175782 8.316407 0 11.492188-1.589843 1.585937-3.667968 2.378906-5.746093 2.378906zm0 0" fill="#ffeaa8"/><path d="m341.429688 85.285156c-2.078126 0-4.160157-.792968-5.746094-2.378906-42.984375-42.980469-100.128906-66.652344-160.90625-66.652344s-117.921875 23.671875-160.902344 66.652344c-3.175781 3.171875-8.320312 3.171875-11.492188 0-3.175781-3.175781-3.175781-8.316406 0-11.492188 46.046876-46.054687 107.277344-71.414062 172.394532-71.414062 65.121094 0 126.351562 25.359375 172.398437 71.414062 3.175781 3.175782 3.175781 8.316407 0 11.492188-1.585937 1.585938-3.667969 2.378906-5.746093 2.378906zm0 0" fill="#fff5d7"/><path d="m207.285156 479.492188h-65.015625c-8.976562 0-16.253906 7.277343-16.253906 16.253906v8.125c0 4.488281 3.640625 8.128906 8.128906 8.128906h81.269531c4.488282 0 8.125-3.640625 8.125-8.128906v-8.125c0-8.976563-7.277343-16.253906-16.253906-16.253906zm0 0" fill="#eceaec"/><path d="m174.777344 381.96875c-40.394532 0-73.140625-32.746094-73.140625-73.144531v-40.632813h146.285156v40.632813c0 40.398437-32.746094 73.144531-73.144531 73.144531zm0 0" fill="#eceaec"/><path d="m117.890625 308.824219v-40.632813h-16.253906v40.632813c0 40.398437 32.746093 73.144531 73.140625 73.144531 2.660156 0 5.6875-.164062 8.269531-.464844-36.429687-4.179687-65.15625-35.132812-65.15625-72.679687zm0 0" fill="#dad8db"/><path d="m150.398438 484.644531v-5.152343h-8.128907c-8.976562 0-16.253906 7.277343-16.253906 16.253906v8.125c0 4.488281 3.640625 8.128906 8.128906 8.128906h81.269531c4.488282 0 8.125-3.640625 8.125-8.128906v-8.125h-62.042968c-6.128906 0-11.097656-4.96875-11.097656-11.101563zm0 0" fill="#dad8db"/><g fill="#6f6571"><path d="m207.285156 243.808594c4.492188 0 8.128906-3.632813 8.128906-8.125v-52.699219c-5.007812-3.351563-10.480468-6.105469-16.253906-8.148437v60.847656c0 4.492187 3.632813 8.125 8.125 8.125zm0 0"/><path d="m142.269531 243.808594c4.492188 0 8.128907-3.632813 8.128907-8.125v-60.765625c-5.777344 2.046875-11.25 4.730469-16.253907 8.082031v52.683594c0 4.492187 3.632813 8.125 8.125 8.125zm0 0"/><path d="m174.777344 243.808594c4.492187 0 8.128906-3.632813 8.128906-8.125v-64.566406c-2.671875-.296876-5.378906-.449219-8.128906-.449219s-5.457032.152343-8.125.449219v64.566406c0 4.492187 3.632812 8.125 8.125 8.125zm0 0"/></g><path d="m134.144531 197.847656c4.636719-5.742187 10.105469-10.71875 16.253907-14.839844v-8.105468c-5.777344 2.042968-11.25 4.730468-16.253907 8.082031zm0 0" fill="#5d5360"/><path d="m166.652344 171.117188v3.738281c5.183594-1.835938 10.605468-3.113281 16.253906-3.738281-2.671875-.296876-5.378906-.449219-8.128906-.449219s-5.457032.152343-8.125.449219zm0 0" fill="#5d5360"/></svg>